<svg width="62" height="48" viewBox="0 0 62 48" fill="none" xmlns="http://www.w3.org/2000/svg">
<path d="M52.2419 27.6521L40.8489 39.0448V35.7537C40.8489 34.442 39.7856 33.3787 38.4739 33.3787C37.1622 33.3787 36.0989 34.442 36.0989 35.7537V44.7787C36.0989 44.779 36.0989 44.7794 36.0989 44.7797C36.0995 46.072 37.1502 47.1537 38.4739 47.1537H47.4989C48.8106 47.1537 49.8739 46.0904 49.8739 44.7787C49.8739 43.467 48.8106 42.4037 47.4989 42.4037H44.2077L55.6006 31.011C56.5282 30.0835 56.5282 28.5797 55.6006 27.6523C54.6732 26.7245 53.1693 26.7246 52.2419 27.6521Z" fill="white"/>
<path d="M58.7852 0.366287H44.7727C43.461 0.366287 42.3977 1.42957 42.3977 2.74129V14.3788H30.7602C29.4486 14.3788 28.3852 15.4421 28.3852 16.7538V28.3913H16.7477C15.436 28.3913 14.3727 29.4546 14.3727 30.7663V42.4038H2.73511C1.4234 42.4038 0.360107 43.4671 0.360107 44.7788C0.360107 46.0905 1.4234 47.1538 2.73511 47.1538H16.7477C17.3776 47.1538 17.9818 46.9036 18.4271 46.4581C18.8725 46.0128 19.1227 45.4086 19.1227 44.7788L19.1226 33.1413H30.7602C31.3901 33.1413 31.9943 32.8911 32.4396 32.4456C32.885 32.0003 33.1352 31.3961 33.1352 30.7663L33.1351 19.1288H44.7726C45.4026 19.1288 46.0067 18.8786 46.452 18.4331C46.8974 17.9878 47.1476 17.3836 47.1476 16.7538L47.1475 5.11629H58.7851C60.0968 5.11629 61.1601 4.053 61.1601 2.74129C61.1601 1.42957 60.0968 0.366287 58.7852 0.366287Z" fill="white"/>
</svg>
