<svg width="62" height="39" viewBox="0 0 62 39" fill="none" xmlns="http://www.w3.org/2000/svg">
<path d="M49.8393 15.5912C48.9248 15.5912 48.0356 15.7009 47.1835 15.9066L42.6811 5.10079L46.5869 3.79893C47.5201 3.48781 48.0245 2.47903 47.7133 1.54577C47.4022 0.612634 46.394 0.107827 45.4602 0.419309L39.6147 2.37287C38.7066 2.75132 38.2772 3.79407 38.6556 4.70215L39.7748 7.38815L24.1624 11.4473L22.5588 7.70616H25.0364C26.0201 7.70616 26.8176 6.90864 26.8176 5.92491C26.8176 4.94119 26.0201 4.14366 25.0364 4.14366H17.4047C16.4209 4.14366 15.6234 4.94119 15.6234 5.92491C15.6234 6.90864 16.4209 7.70616 17.4047 7.70616H18.6828L21.0544 13.2392L17.6021 17.267C15.8784 16.2049 13.8501 15.5912 11.681 15.5912C5.43869 15.5912 0.360107 20.6696 0.360107 26.912C0.360107 33.1543 5.43869 38.2327 11.6809 38.2327C17.3173 38.2327 22.0042 34.0922 22.8611 28.6932H28.852C29.4211 28.6932 29.9559 28.4213 30.2913 27.9614L41.7811 12.2038L43.8962 17.2804C40.6712 19.2775 38.5182 22.8477 38.5182 26.9118C38.5182 33.1542 43.5966 38.2326 49.839 38.2326C56.0813 38.2326 61.1601 33.1543 61.1601 26.912C61.1601 20.6696 56.0815 15.5912 49.8393 15.5912ZM11.6809 34.6704C7.40305 34.6704 3.92261 31.1899 3.92261 26.912C3.92261 22.634 7.40305 19.1537 11.6809 19.1537C12.9636 19.1537 14.1736 19.4685 15.2406 20.0221L10.3285 25.7528C9.87566 26.281 9.77188 27.0244 10.0626 27.6564C10.3533 28.2884 10.9853 28.6933 11.6809 28.6933H19.2304C18.4232 32.1151 15.3459 34.6704 11.6809 34.6704ZM15.5538 25.1307L22.6185 16.8885L26.1508 25.1307H15.5538ZM29.2566 23.3339L25.5818 14.7591L37.8314 11.5741L29.2566 23.3339ZM49.8393 34.6704C45.5613 34.6704 42.081 31.1899 42.081 26.9121C42.081 24.3315 43.3487 22.0426 45.2926 20.6314L48.195 27.5971C48.5733 28.5052 49.6163 28.9346 50.5243 28.5563C51.4323 28.1778 51.8617 27.1351 51.4834 26.227L48.5795 19.2576C48.9898 19.1902 49.4102 19.1537 49.8392 19.1537C54.1172 19.1537 57.5975 22.6341 57.5975 26.912C57.5975 31.1898 54.1172 34.6704 49.8393 34.6704Z" fill="white"/>
</svg>
