<svg width="55" height="55" viewBox="0 0 55 55" fill="none" xmlns="http://www.w3.org/2000/svg">
      <path
        d="M42.2931 15.4705C38.8019 13.2775 33.4015 10.6633 27.5 10.6633C21.9069 10.6633 16.7599 13.0375 13.4273 15.029C13.2137 15.1566 12.8113 15.4088 12.7135 15.4705C12.4101 15.661 12.1936 15.9367 12.0723 16.2463C12.0002 16.3827 11.9591 16.5501 11.9591 16.7591V17.188C11.9557 17.2303 11.9528 17.2723 11.9528 17.3155V50.4472C11.9528 51.3372 12.6741 52.0585 13.5641 52.0585H13.567H13.5704H41.4359C42.3259 52.0585 43.0472 51.3372 43.0472 50.4472V16.7591C43.0472 16.5501 43.0065 16.3827 42.9339 16.2463C42.8126 15.9367 42.5961 15.661 42.2931 15.4705ZM18.9205 48.8375H15.1813L15.1805 44.7245H18.9205V48.8375ZM18.9205 41.5018H15.18L15.1771 26.9092H18.9205V41.5018ZM18.9205 23.6866H15.1763L15.1754 17.7389C16.2446 17.1044 17.5131 16.4305 18.9205 15.8263V23.6866ZM25.8887 48.8375H22.1432V44.7245H25.8887V48.8375ZM25.8887 41.5018H22.1432V26.9092H25.8887V41.5018ZM25.8887 23.6866H22.1432V14.6757C23.3437 14.3358 24.6004 14.0824 25.8887 13.9628V23.6866ZM32.8568 48.8375H29.1113V44.7245H32.8568V48.8375ZM32.8568 41.5018H29.1113V26.9092H32.8568V41.5018ZM32.8568 23.6866H29.1113V13.9619C30.3974 14.0803 31.6533 14.3316 32.8568 14.6719V23.6866ZM39.8245 48.8375H36.0795V44.7245H39.8245V48.8375ZM39.8245 41.5018H36.0795V26.9092H39.8245V41.5018ZM39.8245 23.6866H36.0795V15.8229C37.4625 16.4171 38.7268 17.0868 39.8245 17.7393V23.6866Z"
        fill="white"
      />
      <path
        d="M54.7952 13.7043C53.5998 14.492 52.1705 14.9523 50.6352 14.9523C49.0998 14.9523 47.6702 14.492 46.4751 13.7043C46.3421 14.1219 46.2699 14.5667 46.2699 15.0278V50.4489C46.2699 51.3385 46.9916 52.0602 47.8812 52.0602H53.3887C54.2787 52.0602 55 51.3385 55 50.4489V15.0278C55 14.5667 54.9278 14.1219 54.7952 13.7043Z"
        fill="white"
      />
      <path
        d="M54.9958 7.36847C54.9958 9.77707 53.0433 11.7295 50.6351 11.7295C48.2265 11.7295 46.274 9.77707 46.274 7.36847C46.274 4.96029 48.2265 3.00781 50.6351 3.00781C53.0433 3.00781 54.9958 4.96029 54.9958 7.36847Z"
        fill="white"
      />
      <path
        d="M4.36485 14.9523C2.82948 14.9523 1.40026 14.492 0.204773 13.7043C0.0721741 14.1223 0 14.5667 0 15.0278V50.4489C0 51.3385 0.721321 52.0602 1.61133 52.0602H7.11838C8.00838 52.0602 8.72971 51.3385 8.72971 50.4489V15.0278C8.72971 14.5667 8.65795 14.1223 8.52493 13.7048C7.32986 14.492 5.90023 14.9523 4.36485 14.9523Z"
        fill="white"
      />
      <path
        d="M8.72588 7.36847C8.72588 9.77707 6.77341 11.7295 4.36481 11.7295C1.95663 11.7295 0.00415039 9.77707 0.00415039 7.36847C0.00415039 4.96029 1.95663 3.00781 4.36481 3.00781C6.77341 3.00781 8.72588 4.96029 8.72588 7.36847Z"
        fill="white"
      />
    </svg>