<svg viewBox="0 0 133 70" fill="none" xmlns="http://www.w3.org/2000/svg">
<path d="M5.86079 69.3012C2.57052 69.3012 0 66.6278 0 63.4404V5.86078C0 2.67334 2.67334 0 5.86079 0C9.04824 0 11.7216 2.67334 11.7216 5.86078V63.3376C11.8244 66.6278 9.15106 69.3012 5.86079 69.3012Z" fill="#F6F6F6"/>
<path d="M50.0737 69.3008C46.7834 69.3008 44.2129 66.6275 44.2129 63.4401V48.0169C44.2129 47.7085 44.1101 47.5028 44.1101 47.5028L28.0701 33.3135C27.9672 33.2107 27.9672 33.2107 27.8644 33.3135L11.8244 47.6056V63.4401C11.8244 66.7303 9.15105 69.3008 5.9636 69.3008C2.77616 69.3008 0 66.6275 0 63.3372V42.259L20.05 24.471C24.5742 20.4609 31.3603 20.4609 35.8844 24.471L51.9245 38.6602C54.495 40.9223 55.9345 44.3154 55.9345 47.9141V63.3372C55.9345 66.6275 53.2612 69.3008 50.0737 69.3008Z" fill="#F6F6F6"/>
<path d="M27.9672 69.7123C31.2041 69.7123 33.828 67.0883 33.828 63.8515C33.828 60.6147 31.2041 57.9907 27.9672 57.9907C24.7304 57.9907 22.1064 60.6147 22.1064 63.8515C22.1064 67.0883 24.7304 69.7123 27.9672 69.7123Z" fill="#F6F6F6"/>
<path d="M115.932 20.9753C118.399 21.4894 120.559 22.4148 122.409 23.6486C125.597 25.705 128.167 28.584 130.121 32.2856C131.972 35.9871 133 39.9971 133 44.4184C133 48.2228 132.486 51.7187 131.355 54.8033C130.224 57.888 128.681 60.5613 126.625 62.7205C124.569 64.8798 121.998 66.5249 119.016 67.7588C116.034 68.9926 112.641 69.5067 108.94 69.5067H98.6578C95.676 69.5067 93.6195 68.9926 92.5913 67.9644C91.5631 66.9362 91.049 65.0854 91.049 62.4121V28.0699C91.049 25.2938 91.5631 23.3402 92.5913 22.1063C93.6195 20.8725 95.676 20.2555 98.8634 20.2555H107.912C110.791 20.1527 113.464 20.4612 115.932 20.9753ZM120.661 44.2128C120.661 35.1646 116.137 30.6404 107.089 30.6404H102.154V59.1218H107.295C116.24 59.1218 120.661 54.0836 120.661 44.2128Z" fill="#F6F6F6"/>
<path d="M72.7469 69.7128C69.4566 69.7128 66.8861 67.0395 66.8861 63.852V26.8366C66.8861 23.5463 69.5594 20.9758 72.7469 20.9758C76.0372 20.9758 78.6077 23.6491 78.6077 26.8366V63.7492C78.6077 67.0395 75.9343 69.7128 72.7469 69.7128Z" fill="#F6F6F6"/>
<path d="M72.747 11.7216C75.9838 11.7216 78.6077 9.09761 78.6077 5.86079C78.6077 2.62396 75.9838 0 72.747 0C69.5101 0 66.8862 2.62396 66.8862 5.86079C66.8862 9.09761 69.5101 11.7216 72.747 11.7216Z" fill="#F6F6F6"/>
</svg>
