<svg viewBox="0 0 70 70" fill="none" xmlns="http://www.w3.org/2000/svg">
<path fill-rule="evenodd" clip-rule="evenodd" d="M0.118168 32.1491C1.69269 12.8844 18.5862 -1.45633 37.8509 0.11819C57.1156 1.69271 71.4563 18.5862 69.8818 37.8509C68.3073 57.1156 51.4137 71.4563 32.1491 69.8818C12.8844 68.3073 -1.45636 51.4138 0.118168 32.1491ZM30.2555 20.436C30.2555 17.7243 32.4537 15.5261 35.1653 15.5261C37.8769 15.5261 40.0751 17.7243 40.0751 20.436C40.0751 23.1476 37.8769 25.3458 35.1653 25.3458C32.4537 25.3458 30.2555 23.1476 30.2555 20.436ZM35.0227 27.7848C32.3898 27.7848 30.2555 29.9192 30.2555 32.552V51.6209C30.2555 54.2537 32.3898 56.3881 35.0227 56.3881C37.6555 56.3881 39.7899 54.2537 39.7899 51.6209V32.552C39.7899 29.9192 37.6555 27.7848 35.0227 27.7848Z" fill="#F6F6F6"/>
</svg>
