<svg width="41" height="60" viewBox="0 0 41 60" fill="none" xmlns="http://www.w3.org/2000/svg">
<path d="M38.6371 25.9618V18.554C38.6371 8.61727 30.553 0.533203 20.6163 0.533203C10.6796 0.533203 2.59549 8.61727 2.59549 18.554V25.8919C1.47497 26.3195 0.366421 27.2838 0.366421 29.1943V39.2828C0.366421 50.4486 9.45061 59.5328 20.6164 59.5328C31.7823 59.5328 40.8661 50.4486 40.8661 39.2828V29.1943C40.8661 27.3816 39.7848 26.4206 38.6371 25.9618ZM24.4651 47.6392C24.5285 47.975 24.3008 48.2499 23.959 48.2499H17.3498C17.0081 48.2499 16.7803 47.975 16.8437 47.6392L17.9022 42.029C17.0943 41.2922 16.5872 40.231 16.5872 39.0515C16.5872 36.8263 18.3911 35.0224 20.6163 35.0224C22.8415 35.0224 24.6453 36.8263 24.6453 39.0515C24.6453 40.199 24.1649 41.2336 23.395 41.9675L24.4651 47.6392ZM32.4232 25.6022H8.80934V18.554C8.80934 12.0437 14.1059 6.74706 20.6163 6.74706C27.1265 6.74706 32.4232 12.0437 32.4232 18.554V25.6022Z" fill="#F2F2F2"/>
</svg>
