<svg width="37" height="66" viewBox="0 0 37 66" fill="none" xmlns="http://www.w3.org/2000/svg">
<path d="M28.7151 65.4997H7.79652C6.73438 65.4997 5.87225 64.6192 5.87225 63.5345C5.87225 62.4498 6.73438 61.5693 7.79652 61.5693H28.7151C29.7773 61.5693 30.6394 62.4498 30.6394 63.5345C30.6394 64.6192 29.7773 65.4997 28.7151 65.4997Z" fill="#545454"/>
<path d="M18.2592 65.5C17.1971 65.5 16.335 64.6196 16.335 63.5348V47.4614C16.335 46.3767 17.1971 45.4962 18.2592 45.4962C19.3214 45.4962 20.1835 46.3767 20.1835 47.4614V63.5348C20.1766 64.6196 19.3214 65.5 18.2592 65.5Z" fill="#545454"/>
<path d="M18.3628 40.4384H18.1559C12.4383 40.4384 7.80347 35.7051 7.80347 29.866V11.1723C7.79657 5.33315 12.4314 0.599854 18.1559 0.599854H18.3628C24.0804 0.599854 28.7152 5.33315 28.7152 11.1723V29.866C28.7152 35.7051 24.0804 40.4384 18.3628 40.4384Z" fill="#545454"/>
<path d="M18.3627 48.2565H18.1558C13.3486 48.2565 8.82416 46.3406 5.42394 42.8681C2.02372 39.3956 0.147736 34.775 0.147736 29.8657C0.147736 28.781 1.00986 27.9005 2.072 27.9005C3.13414 27.9005 3.99626 28.781 3.99626 29.8657C3.99626 33.7256 5.47222 37.36 8.14136 40.093C10.8174 42.8259 14.3762 44.3261 18.1558 44.3261H18.3627C22.1423 44.3261 25.7011 42.8188 28.3772 40.093C31.0532 37.36 32.5223 33.7256 32.5223 29.8657C32.5223 28.781 33.3844 27.9005 34.4465 27.9005C35.5087 27.9005 36.3708 28.781 36.3708 29.8657C36.3708 34.775 34.4948 39.3956 31.0946 42.8681C27.6944 46.3406 23.1699 48.2565 18.3627 48.2565Z" fill="#545454"/>
</svg>
