<svg width="48" height="48" viewBox="0 0 48 48" fill="none" xmlns="http://www.w3.org/2000/svg">
<path d="M47.351 7.02848L44.0315 0.707117C43.6949 0.0618895 42.9001 -0.190591 42.2549 0.155401L8.98584 17.5766C8.14429 17.1464 7.19989 16.9033 6.19939 16.9033C2.7771 16.9033 0 19.6899 0 23.1031V46.1817C0 46.911 0.589082 47.5002 1.31842 47.5002H11.071C11.8003 47.5002 12.3894 46.911 12.3894 46.1817V26.8435L46.7899 8.81455C47.4351 8.47791 47.6876 7.68306 47.351 7.02848ZM2.63684 44.8631V23.1031C2.63684 21.1393 4.23578 19.5496 6.19003 19.5496C8.15364 19.5496 9.74323 21.1487 9.74323 23.1031V44.8631H2.63684ZM13.5115 23.2807L12.3894 23.8699V23.1124C12.3894 21.7191 11.9312 20.4473 11.1645 19.4187L13.6517 18.1189L13.4834 23.2807H13.5115ZM19.8231 19.9704L16.167 21.8874L16.3353 16.7069L19.9914 14.7899L19.8231 19.9704ZM26.6209 16.417L22.5067 18.5678L22.675 13.3872L26.7892 11.2365L26.6209 16.417ZM33.4094 12.8542L29.3045 15.005L29.4634 9.82447L33.5777 7.67371L33.4094 12.8542ZM40.1978 9.29145L36.0836 11.4422L36.2613 6.26169L40.3661 4.11093L40.1978 9.29145ZM42.8908 7.87943L43.003 4.41952L44.4055 7.08459L42.8908 7.87943Z" fill="white"/>
</svg>
